<svg width="64" height="31" viewBox="0 0 64 31" fill="none" xmlns="http://www.w3.org/2000/svg">
<g clip-path="url(#clip0_1_6)">
<path d="M16.082 6.188C13.8747 6.188 12.1833 6.86167 11.008 8.209C9.83267 9.55633 9.245 11.4627 9.245 13.928C9.245 16.422 9.89 18.3427 11.18 19.69C12.4987 21.0373 14.2617 21.711 16.469 21.711C17.6443 21.711 18.6333 21.5533 19.436 21.238C20.2673 20.9227 21.0557 20.5643 21.801 20.163C22.2883 20.5643 22.661 21.0517 22.919 21.625C23.2057 22.1697 23.349 22.8147 23.349 23.56C23.349 24.7353 22.6897 25.7387 21.371 26.57C20.081 27.3727 18.103 27.774 15.437 27.774C13.5163 27.774 11.7103 27.5017 10.019 26.957C8.32767 26.4123 6.85133 25.581 5.59 24.463C4.32867 23.3163 3.32533 21.883 2.58 20.163C1.86333 18.4143 1.505 16.336 1.505 13.928C1.505 11.692 1.849 9.72833 2.537 8.037C3.25367 6.317 4.214 4.86933 5.418 3.694C6.65067 2.51867 8.084 1.63 9.718 1.028C11.352 0.426 13.1007 0.125 14.964 0.125C17.6013 0.125 19.6367 0.555 21.07 1.415C22.532 2.275 23.263 3.37867 23.263 4.726C23.263 5.47133 23.0767 6.11633 22.704 6.661C22.3313 7.20567 21.9013 7.63567 21.414 7.951C20.6687 7.46367 19.866 7.048 19.006 6.704C18.1747 6.36 17.2 6.188 16.082 6.188ZM43.0074 20.593C42.6347 20.9083 42.1474 21.1663 41.5454 21.367C40.9721 21.539 40.2984 21.625 39.5244 21.625C38.4924 21.625 37.6324 21.496 36.9444 21.238C36.2851 20.98 35.8551 20.5357 35.6544 19.905C34.8517 17.3823 34.1924 15.347 33.6764 13.799C33.1604 12.2223 32.7591 10.8463 32.4724 9.671H32.2574C32.1714 11.3623 32.0997 12.9103 32.0424 14.315C32.0137 15.691 31.9851 17.0383 31.9564 18.357C31.9564 19.6757 31.9277 21.0087 31.8704 22.356C31.8417 23.7033 31.7844 25.194 31.6984 26.828C31.3257 26.9713 30.8384 27.086 30.2364 27.172C29.6344 27.2867 29.0324 27.344 28.4304 27.344C27.1691 27.344 26.1801 27.1433 25.4634 26.742C24.7754 26.3407 24.4314 25.6097 24.4314 24.549L25.6784 2.619C25.9077 2.24633 26.4094 1.845 27.1834 1.415C27.9574 0.984999 29.0467 0.769999 30.4514 0.769999C31.9707 0.769999 33.1604 1.01367 34.0204 1.501C34.8804 1.95967 35.5111 2.71933 35.9124 3.78C36.1704 4.468 36.4427 5.25633 36.7294 6.145C37.0447 7.03367 37.3457 7.951 37.6324 8.897C37.9477 9.843 38.2487 10.789 38.5354 11.735C38.8221 12.6523 39.0801 13.4837 39.3094 14.229H39.5244C40.2124 11.821 40.9004 9.499 41.5884 7.263C42.2764 4.99833 42.9071 3.10633 43.4804 1.587C43.9104 1.35767 44.4551 1.17133 45.1144 1.028C45.8024 0.855999 46.5621 0.769999 47.3934 0.769999C48.7981 0.769999 49.9447 0.984999 50.8334 1.415C51.7221 1.81633 52.2381 2.404 52.3814 3.178C52.4961 3.75133 52.6107 4.64 52.7254 5.844C52.8687 7.01933 53.0121 8.35233 53.1554 9.843C53.2987 11.3337 53.4421 12.9103 53.5854 14.573C53.7287 16.2357 53.8577 17.841 53.9724 19.389C54.1157 20.9083 54.2304 22.313 54.3164 23.603C54.4024 24.8643 54.4597 25.839 54.4884 26.527C54.0011 26.8137 53.4851 27.0143 52.9404 27.129C52.4244 27.2723 51.7507 27.344 50.9194 27.344C49.8301 27.344 48.9127 27.1577 48.1674 26.785C47.4221 26.4123 47.0207 25.6813 46.9634 24.592C46.7914 21.4673 46.6767 18.658 46.6194 16.164C46.5907 13.67 46.5334 11.5773 46.4474 9.886H46.2324C45.9457 11.004 45.5301 12.4087 44.9854 14.1C44.4407 15.7913 43.7814 17.9557 43.0074 20.593ZM55.037 23.517C55.037 22.313 55.4096 21.3097 56.155 20.507C56.9003 19.7043 57.918 19.303 59.208 19.303C60.498 19.303 61.5156 19.7043 62.261 20.507C63.0063 21.3097 63.379 22.313 63.379 23.517C63.379 24.721 63.0063 25.7243 62.261 26.527C61.5156 27.3297 60.498 27.731 59.208 27.731C57.918 27.731 56.9003 27.3297 56.155 26.527C55.4096 25.7243 55.037 24.721 55.037 23.517Z" fill="black"/>
</g>
<defs>
<clipPath id="clip0_1_6">
<rect width="64" height="31" fill="white"/>
</clipPath>
</defs>
</svg>
